<?xml version="1.0" encoding="utf-8"?>
<!-- Generator: Adobe Illustrator 21.0.2, SVG Export Plug-In . SVG Version: 6.00 Build 0)  -->
<svg version="1.1" id="Layer_1" xmlns="http://www.w3.org/2000/svg" xmlns:xlink="http://www.w3.org/1999/xlink" x="0px" y="0px"
	 viewBox="0 0 258.9 58" enable-background="new 0 0 258.9 58" xml:space="preserve">
<g>
	<g>
		<path fill="#1D1D1B" d="M100.8,26.7h7.8v2.4h-5v2.5h4.3v2.3h-4.3v3h5.2v2.4h-7.9L100.8,26.7L100.8,26.7z"/>
		<path fill="#1D1D1B" d="M110.5,26h2.6v13.2h-2.6V26z"/>
		<path fill="#1D1D1B" d="M117.5,35.7c0.3,1.2,1.3,1.7,2.5,1.7c1,0,2-0.3,2.9-0.9v2.2c-0.8,0.5-2.1,0.8-3.2,0.8
			c-2.8,0-4.8-1.8-4.8-4.4c0-2.7,2.1-4.5,4.5-4.5c2.1,0,4.1,1.4,4.1,4.2c0,0.3,0,0.7-0.1,0.9H117.5z M120.9,34
			c-0.2-0.9-0.8-1.5-1.7-1.5c-0.8,0-1.5,0.5-1.8,1.5H120.9z"/>
		<path fill="#1D1D1B" d="M125.1,26h2.6v8.3l0,0l3-3.6h3l-3.3,3.8l3.5,4.7h-3.1l-3.1-4.4l0,0v4.3h-2.6C125.1,39.1,125.1,26,125.1,26
			z"/>
		<path fill="#1D1D1B" d="M140.7,39c-0.4,0.3-1.2,0.5-1.9,0.5c-0.9,0-1.7-0.3-2.2-0.8s-0.7-1.2-0.7-2.5v-3.1h-1.4v-2.2h1.4v-2.2
			l2.6-0.5v2.7h2.3v2.2h-2.3V36c0,0.8,0.2,1.5,1,1.5c0.4,0,0.9-0.2,1.3-0.3V39H140.7z"/>
		<path fill="#1D1D1B" d="M142.2,30.7h2.6v1.1l0,0c0.6-0.8,1.4-1.3,2.5-1.3c0.2,0,0.4,0,0.6,0.1v2.5c-0.2-0.1-0.5-0.1-0.7-0.1
			c-0.9,0-1.7,0.3-2.3,1v5.2h-2.6v-8.5H142.2z"/>
		<path fill="#1D1D1B" d="M153.3,30.5c2.7,0,4.8,1.9,4.8,4.5s-2,4.5-4.8,4.5c-2.7,0-4.8-1.9-4.8-4.5S150.6,30.5,153.3,30.5z
			 M153.3,37.2c1.2,0,2.1-1,2.1-2.2s-0.9-2.2-2.1-2.2c-1.2,0-2.1,1-2.1,2.2S152.1,37.2,153.3,37.2z"/>
		<path fill="#1D1D1B" d="M165.3,39c-0.4,0.3-1.2,0.5-1.9,0.5c-0.9,0-1.7-0.3-2.2-0.8s-0.7-1.2-0.7-2.5v-3.1H159v-2.2h1.4v-2.2
			l2.6-0.5v2.7h2.3v2.2H163V36c0,0.8,0.2,1.5,1,1.5c0.4,0,0.9-0.2,1.3-0.3V39z"/>
		<path fill="#1D1D1B" d="M168.9,35.7c0.3,1.2,1.3,1.7,2.5,1.7c1,0,2-0.3,2.9-0.9v2.2c-0.8,0.5-2.1,0.8-3.2,0.8
			c-2.8,0-4.8-1.8-4.8-4.4c0-2.7,2.1-4.5,4.5-4.5c2.1,0,4.1,1.4,4.1,4.2c0,0.3,0,0.7-0.1,0.9H168.9z M172.3,34
			c-0.2-0.9-0.8-1.5-1.7-1.5c-0.8,0-1.5,0.5-1.8,1.5H172.3z"/>
		<path fill="#1D1D1B" d="M176.4,26h2.6v5.5l0,0c0.6-0.5,1.5-1,2.6-1c0.9,0,1.7,0.3,2.2,0.9s0.7,1.3,0.7,2.5v5.3H182v-4.9
			c0-0.6-0.1-1-0.3-1.2c-0.2-0.3-0.5-0.4-0.9-0.4c-0.7,0-1.3,0.3-1.8,0.7v5.7h-2.6V26z"/>
		<path fill="#1D1D1B" d="M186.8,30.7h2.6v0.8l0,0c0.7-0.5,1.6-1,2.6-1c0.9,0,1.7,0.3,2.2,0.9s0.7,1.3,0.7,2.5v5.3h-2.6v-4.9
			c0-0.6-0.1-1-0.3-1.2c-0.2-0.3-0.5-0.4-0.9-0.4c-0.7,0-1.3,0.3-1.8,0.7v5.7h-2.6v-8.4H186.8z"/>
		<path fill="#1D1D1B" d="M198.6,26.5c0.8,0,1.5,0.7,1.5,1.5s-0.7,1.5-1.5,1.5s-1.5-0.7-1.5-1.5C197,27.2,197.7,26.5,198.6,26.5z
			 M197.2,30.7h2.6v8.5h-2.6V30.7z"/>
		<path fill="#1D1D1B" d="M201.8,36.4c1.2,0.7,2.5,1,3.4,1c0.7,0,1.2-0.2,1.2-0.7c0-0.7-1-0.6-2.2-0.9c-1.6-0.4-2.6-1.1-2.6-2.5
			c0-1.8,1.6-2.8,3.7-2.8c1,0,2.3,0.2,3.3,0.7v2.3c-1.1-0.6-2.4-0.9-3.2-0.9c-0.7,0-1.1,0.2-1.1,0.6c0,0.6,0.9,0.6,2.2,0.9
			c1.6,0.4,2.6,1,2.6,2.5c0,1.9-1.6,2.9-3.8,2.9c-1,0-2.3-0.2-3.4-0.7L201.8,36.4L201.8,36.4z M206.3,29.5h-2l-2-2.8h1.8l1.3,1.6
			l1.3-1.6h1.8L206.3,29.5z"/>
		<path fill="#1D1D1B" d="M210.6,26h2.6v8.3l0,0l3-3.6h3l-3.3,3.8l3.5,4.7h-3.1l-3.1-4.4l0,0v4.3h-2.6L210.6,26L210.6,26z"/>
		<path fill="#1D1D1B" d="M225.2,38.7c-0.6,0.4-1.4,0.7-2.4,0.7c-0.7,0-1.4-0.2-2-0.6c-0.6-0.4-1-1.1-1-2s0.4-1.6,1-2.1
			c0.7-0.5,1.5-0.6,2.4-0.6c0.5,0,1,0.1,1.5,0.2V34c0-0.4-0.1-0.7-0.3-0.9s-0.7-0.4-1.3-0.4c-1,0-1.8,0.3-2.5,0.7v-2.3
			c0.7-0.3,1.7-0.7,3-0.7c1.1,0,2.2,0.3,2.8,0.8s1,1.3,1,2.4v2.9c0,0.4,0.2,0.7,0.5,0.7c0.1,0,0.3,0,0.4-0.1v2
			c-0.3,0.2-0.8,0.3-1.3,0.3C226.4,39.4,225.7,39.2,225.2,38.7L225.2,38.7z M224.8,35.9c-0.3-0.1-0.7-0.1-0.9-0.1
			c-0.7,0-1.4,0.2-1.4,0.9c0,0.6,0.5,0.8,1.1,0.8c0.5,0,0.9-0.2,1.2-0.3L224.8,35.9L224.8,35.9z"/>
		<path fill="#1D1D1B" d="M102.1,44.8c0.8,0,1.5,0.7,1.5,1.5s-0.7,1.5-1.5,1.5s-1.5-0.7-1.5-1.5S101.3,44.8,102.1,44.8z M100.8,49.1
			h2.6v8.5h-2.6V49.1z"/>
		<path fill="#1D1D1B" d="M105.6,49.1h2.6v0.8l0,0c0.7-0.5,1.6-1,2.6-1c0.9,0,1.7,0.3,2.2,0.9c0.5,0.6,0.7,1.3,0.7,2.5v5.3h-2.6
			v-4.9c0-0.6-0.1-1-0.3-1.2c-0.2-0.3-0.5-0.4-0.9-0.4c-0.7,0-1.3,0.3-1.8,0.7v5.7h-2.6v-8.4H105.6z"/>
		<path fill="#1D1D1B" d="M120.1,49.1h2.6v1.1l0,0c0.6-0.8,1.4-1.3,2.5-1.3c0.2,0,0.4,0,0.6,0.1v2.5c-0.2-0.1-0.5-0.1-0.7-0.1
			c-0.9,0-1.7,0.3-2.3,1v5.2h-2.6L120.1,49.1L120.1,49.1z"/>
		<path fill="#1D1D1B" d="M131.5,57.1c-0.6,0.4-1.4,0.7-2.4,0.7c-0.7,0-1.4-0.2-2-0.6c-0.6-0.4-1-1.1-1-2s0.4-1.6,1-2.1
			c0.7-0.5,1.5-0.6,2.4-0.6c0.5,0,1,0.1,1.5,0.2v-0.3c0-0.4-0.1-0.7-0.3-0.9s-0.7-0.4-1.3-0.4c-1,0-1.8,0.3-2.5,0.7v-2.3
			c0.7-0.3,1.7-0.7,3-0.7c1.1,0,2.2,0.3,2.8,0.8s1,1.3,1,2.4v2.9c0,0.4,0.2,0.7,0.5,0.7c0.1,0,0.3,0,0.4-0.1v2
			c-0.3,0.2-0.8,0.3-1.3,0.3C132.7,57.7,132,57.6,131.5,57.1L131.5,57.1z M131.1,54.2c-0.3-0.1-0.7-0.1-0.9-0.1
			c-0.7,0-1.4,0.2-1.4,0.9c0,0.6,0.5,0.8,1.1,0.8c0.5,0,0.9-0.2,1.2-0.3L131.1,54.2L131.1,54.2z"/>
		<path fill="#1D1D1B" d="M143,57.1c-0.8,0.5-1.8,0.7-2.8,0.7c-2.7,0-4.8-1.9-4.8-4.4c0-2.7,2.2-4.5,4.9-4.5c1,0,1.8,0.2,2.5,0.6
			v2.4c-0.8-0.5-1.6-0.8-2.4-0.8c-1.4,0-2.4,1-2.4,2.2c0,1.3,1,2.2,2.4,2.2c0.8,0,1.8-0.3,2.5-0.8v2.4H143z M141,47.8h-2l-2-2.8h1.8
			l1.3,1.6l1.3-1.6h1.8L141,47.8z"/>
		<path fill="#1D1D1B" d="M150.5,56.8c-0.7,0.6-1.5,1-2.6,1c-1,0-1.7-0.3-2.2-0.8c-0.6-0.6-0.8-1.4-0.8-2.6v-5.3h2.6V54
			c0,0.6,0.1,1,0.3,1.2c0.2,0.3,0.6,0.4,0.9,0.4c0.7,0,1.3-0.4,1.7-0.8v-5.7h2.6v8.5h-2.6L150.5,56.8L150.5,56.8z"/>
		<path fill="#1D1D1B" d="M155.4,49.1h2.6v0.8l0,0c0.7-0.5,1.6-1,2.6-1c0.9,0,1.7,0.3,2.2,0.9c0.5,0.6,0.7,1.3,0.7,2.5v5.3H161v-4.9
			c0-0.6-0.1-1-0.3-1.2c-0.2-0.3-0.5-0.4-0.9-0.4c-0.7,0-1.3,0.3-1.8,0.7v5.7h-2.6V49.1z"/>
		<path fill="#1D1D1B" d="M170.6,57.1c-0.6,0.4-1.4,0.7-2.4,0.7c-0.7,0-1.4-0.2-2-0.6c-0.6-0.4-1-1.1-1-2s0.4-1.6,1-2.1
			c0.7-0.5,1.5-0.6,2.4-0.6c0.5,0,1,0.1,1.5,0.2v-0.3c0-0.4-0.1-0.7-0.3-0.9s-0.7-0.4-1.3-0.4c-1,0-1.8,0.3-2.5,0.7v-2.3
			c0.7-0.3,1.7-0.7,3-0.7c1.1,0,2.2,0.3,2.8,0.8s1,1.3,1,2.4v2.9c0,0.4,0.2,0.7,0.5,0.7c0.1,0,0.3,0,0.4-0.1v2
			c-0.3,0.2-0.8,0.3-1.3,0.3C171.8,57.7,171.1,57.6,170.6,57.1L170.6,57.1z M170.2,54.2c-0.3-0.1-0.7-0.1-0.9-0.1
			c-0.7,0-1.4,0.2-1.4,0.9c0,0.6,0.5,0.8,1.1,0.8c0.5,0,0.9-0.2,1.2-0.3L170.2,54.2L170.2,54.2z"/>
		<path fill="#1D1D1B" d="M175.1,44.3h2.6v13.2h-2.6V44.3z"/>
		<path fill="#1D1D1B" d="M179.9,49.1h2.6v0.8l0,0c0.7-0.5,1.6-1,2.6-1c0.9,0,1.7,0.3,2.2,0.9c0.5,0.6,0.7,1.3,0.7,2.5v5.3h-2.6
			v-4.9c0-0.6-0.1-1-0.3-1.2c-0.2-0.3-0.5-0.4-0.9-0.4c-0.7,0-1.3,0.3-1.8,0.7v5.7h-2.6v-8.4H179.9z"/>
		<path fill="#1D1D1B" d="M191.7,44.8c0.8,0,1.5,0.7,1.5,1.5s-0.7,1.5-1.5,1.5s-1.5-0.7-1.5-1.5C190.1,45.5,190.8,44.8,191.7,44.8z
			 M190.3,49.1h2.6v8.5h-2.6V49.1z"/>
		<path fill="#1D1D1B" d="M194.9,54.8c1.2,0.7,2.5,1,3.4,1c0.7,0,1.2-0.2,1.2-0.7c0-0.7-1-0.6-2.2-0.9c-1.6-0.4-2.6-1.1-2.6-2.5
			c0-1.8,1.6-2.8,3.7-2.8c1,0,2.3,0.2,3.3,0.7v2.3c-1.1-0.6-2.4-0.9-3.2-0.9c-0.7,0-1.1,0.2-1.1,0.6c0,0.6,0.9,0.6,2.2,0.9
			c1.6,0.4,2.6,1,2.6,2.5c0,1.9-1.6,2.9-3.8,2.9c-1,0-2.3-0.2-3.4-0.7L194.9,54.8L194.9,54.8z M199.4,47.8h-2l-2-2.8h1.8l1.3,1.6
			l1.3-1.6h1.8L199.4,47.8z"/>
		<path fill="#1D1D1B" d="M203.7,44.3h2.6v8.3l0,0l3-3.6h3l-3.3,3.8l3.5,4.7h-3.1l-3.1-4.4l0,0v4.3h-2.6L203.7,44.3L203.7,44.3z"/>
		<path fill="#1D1D1B" d="M218.3,57.1c-0.6,0.4-1.4,0.7-2.4,0.7c-0.7,0-1.4-0.2-2-0.6c-0.6-0.4-1-1.1-1-2s0.4-1.6,1-2.1
			c0.7-0.5,1.5-0.6,2.4-0.6c0.5,0,1,0.1,1.5,0.2v-0.3c0-0.4-0.1-0.7-0.3-0.9s-0.7-0.4-1.3-0.4c-1,0-1.8,0.3-2.5,0.7v-2.3
			c0.7-0.3,1.7-0.7,3-0.7c1.1,0,2.2,0.3,2.8,0.8s1,1.3,1,2.4v2.9c0,0.4,0.2,0.7,0.5,0.7c0.1,0,0.3,0,0.4-0.1v2
			c-0.3,0.2-0.8,0.3-1.3,0.3C219.5,57.7,218.8,57.6,218.3,57.1L218.3,57.1z M217.9,54.2c-0.3-0.1-0.7-0.1-0.9-0.1
			c-0.7,0-1.4,0.2-1.4,0.9c0,0.6,0.5,0.8,1.1,0.8c0.5,0,0.9-0.2,1.2-0.3L217.9,54.2L217.9,54.2z"/>
		<path fill="#1D1D1B" d="M226.7,54.8c1.2,0.7,2.5,1,3.4,1c0.7,0,1.2-0.2,1.2-0.7c0-0.7-1-0.6-2.2-0.9c-1.6-0.4-2.6-1.1-2.6-2.5
			c0-1.8,1.6-2.8,3.7-2.8c1,0,2.3,0.2,3.3,0.7v2.3c-1.1-0.6-2.4-0.9-3.2-0.9c-0.7,0-1.1,0.2-1.1,0.6c0,0.6,0.9,0.6,2.2,0.9
			c1.6,0.4,2.6,1,2.6,2.5c0,1.9-1.6,2.9-3.8,2.9c-1,0-2.3-0.2-3.4-0.7L226.7,54.8L226.7,54.8z M231.2,47.8h-2l-2-2.8h1.8l1.3,1.6
			l1.3-1.6h1.8L231.2,47.8z"/>
		<path fill="#1D1D1B" d="M239.7,48.9c2.7,0,4.8,1.9,4.8,4.5c0,2.5-2,4.5-4.8,4.5s-4.8-1.9-4.8-4.5C235,50.8,237,48.9,239.7,48.9z
			 M239.7,55.5c1.2,0,2.1-1,2.1-2.2s-0.9-2.2-2.1-2.2s-2.1,1-2.1,2.2C237.6,54.5,238.5,55.5,239.7,55.5z"/>
		<path fill="#1D1D1B" d="M246.1,44.3h2.6v13.2h-2.6V44.3z"/>
		<path fill="#1D1D1B" d="M255.7,57.1c-0.6,0.4-1.4,0.7-2.4,0.7c-0.7,0-1.4-0.2-2-0.6c-0.6-0.4-1-1.1-1-2s0.4-1.6,1-2.1
			c0.7-0.5,1.5-0.6,2.4-0.6c0.5,0,1,0.1,1.5,0.2v-0.3c0-0.4-0.1-0.7-0.3-0.9s-0.7-0.4-1.3-0.4c-1,0-1.8,0.3-2.5,0.7v-2.3
			c0.7-0.3,1.7-0.7,3-0.7c1.1,0,2.2,0.3,2.8,0.8s1,1.3,1,2.4v2.9c0,0.4,0.2,0.7,0.5,0.7c0.1,0,0.3,0,0.4-0.1v2
			c-0.3,0.2-0.8,0.3-1.3,0.3C256.9,57.7,256.3,57.6,255.7,57.1L255.7,57.1z M255.3,54.2c-0.3-0.1-0.7-0.1-0.9-0.1
			c-0.7,0-1.4,0.2-1.4,0.9c0,0.6,0.5,0.8,1.1,0.8c0.5,0,0.9-0.2,1.2-0.3L255.3,54.2L255.3,54.2z"/>
	</g>
</g>
<g>
	<rect x="0" y="0" fill="#FCE229" width="57.6" height="57.6"/>
</g>
<g>
	<rect x="64.8" y="52.9" fill="#DACEC9" width="25.2" height="4.7"/>
	<rect x="64.8" y="32.4" fill="#DACEC9" width="25.2" height="4.7"/>
	<rect x="64.8" y="42.7" fill="#DACEC9" width="25.2" height="4.7"/>
</g>
<path fill="#EE7B28" d="M77.4,0c-7.2,0-13,5.8-13,13s5.8,13,13,13s13-5.8,13-13S84.6,0,77.4,0z M77.4,19.3c-3.5,0-6.3-2.8-6.3-6.3
	s2.8-6.3,6.3-6.3s6.3,2.8,6.3,6.3C83.7,16.5,80.9,19.3,77.4,19.3z"/>
</svg>
