<svg width="91" height="24" xmlns="http://www.w3.org/2000/svg"><g clip-path="url(#logo-site__a)" fill="#fff"><path d="M23.548.02 17.11 13.2l-3.991 8.536a.953.953 0 0 1-.481.554.922.922 0 0 1-.737.04.952.952 0 0 1-.553-.481L2.12 2.972l1.729-.84L12.7 20.249l.86-1.844L4.574 0 0 2.244l9.917 20.311a2.496 2.496 0 0 0 1.463 1.291c.645.226 1.33.174 1.944-.123a2.8 2.8 0 0 0 .379-.225c.154-.113.287-.277.389-.472.256-.543.941-1.936.962-1.998l9.22-18.886 1.73.85-9.22 18.877a.97.97 0 0 1-.553.491.969.969 0 0 1-.737-.05s-.02-.021-.03-.021l-.676 1.445h.01a2.54 2.54 0 0 0 1.116.256c.276 0 .562-.051.828-.144a2.53 2.53 0 0 0 1.464-1.29l9.916-20.291L23.548.02Zm25.283 9.752c1.18 0 2.11.306 2.791.903.68.598 1.014 1.46 1.014 2.573v3.754c0 .375.166.555.513.555h.778v1.585H52.51c-.43 0-.778-.111-1.056-.334-.264-.222-.402-.528-.402-.903v-.056h-.278c-.097.181-.25.404-.444.654s-.486.459-.861.64c-.375.18-.889.263-1.513.263-.653 0-1.236-.11-1.75-.333a2.832 2.832 0 0 1-1.222-.974c-.305-.43-.444-.959-.444-1.57 0-.612.153-1.154.444-1.558a2.713 2.713 0 0 1 1.236-.931 4.766 4.766 0 0 1 1.777-.32h2.763v-.584c0-.528-.166-.96-.486-1.279-.319-.32-.819-.486-1.471-.486-.653 0-1.153.153-1.5.459-.347.306-.569.709-.68 1.195l-1.764-.57c.153-.486.39-.945.708-1.334.32-.403.765-.723 1.306-.974.541-.25 1.194-.375 1.957-.375Zm10.232 0c1.056 0 1.862.237 2.514.695a3.139 3.139 0 0 1 1.276 1.877l-1.762.5c-.111-.556-.347-.945-.708-1.167-.361-.223-.806-.348-1.333-.348-.528 0-.916.097-1.222.292-.291.194-.444.459-.444.806 0 .376.139.64.43.807.292.167.68.305 1.166.389l.64.111c.652.111 1.249.264 1.79.46.542.194.972.471 1.278.847.319.375.471.862.471 1.473 0 .918-.333 1.613-1.014 2.127-.68.515-1.582.765-2.734.765l-.395-.012c-.966-.057-1.783-.316-2.451-.766-.764-.515-1.236-1.307-1.403-2.35l1.778-.43c.097.5.264.903.5 1.195.236.292.527.5.875.626.346.125.72.18 1.137.18.597 0 1.07-.11 1.389-.347.333-.237.486-.542.486-.904 0-.361-.153-.64-.459-.806-.305-.167-.763-.32-1.36-.43l-.625-.112c-.61-.111-1.18-.264-1.68-.487-.5-.208-.902-.5-1.193-.862-.292-.375-.445-.848-.445-1.418 0-.862.32-1.53.958-2.002.639-.472 1.486-.709 2.54-.709Zm22.353 0c1.18 0 2.11.306 2.79.903.68.598 1.014 1.46 1.014 2.573v3.754c0 .375.167.555.513.555h.778v1.585h-1.416c-.43 0-.777-.111-1.055-.334-.264-.222-.402-.528-.402-.903v-.056h-.279c-.097.181-.25.404-.444.654s-.486.459-.86.64c-.375.18-.89.263-1.514.263-.652 0-1.235-.11-1.749-.333a2.832 2.832 0 0 1-1.222-.974c-.305-.43-.444-.959-.444-1.57 0-.612.153-1.154.444-1.558a2.714 2.714 0 0 1 1.236-.931 4.765 4.765 0 0 1 1.777-.32h2.763v-.584c0-.528-.167-.96-.487-1.279-.319-.32-.819-.486-1.471-.486-.653 0-1.152.153-1.5.459-.346.306-.569.709-.68 1.195l-1.763-.57c.153-.487.39-.945.708-1.334.32-.403.764-.724 1.305-.974.541-.25 1.194-.375 1.958-.375Zm-42.581 7.98h.292l2.416-7.716h2.013l-3.069 9.12h-3.026l-3.055-9.12h2.014l2.415 7.716Zm29.878-7.716h2.707v1.613h-2.707v5.338c0 .375.166.557.514.557h1.902v1.612h-2.514c-.555 0-.985-.167-1.318-.5-.333-.334-.486-.779-.486-1.335v-5.672h-2.513v-1.613h2.513V7.019h1.902v3.017Zm6.512 9.12h-1.903v-1.612h1.903v1.612Zm15.036-.014h-1.903v-9.106h1.903v9.106Zm-42.124-3.948c-.5 0-.917.11-1.222.32-.305.208-.458.528-.458.945 0 .417.153.75.486 1 .32.25.75.377 1.305.377l.266-.011c.634-.049 1.154-.266 1.567-.643.472-.444.708-1.043.708-1.807v-.18h-2.652Zm32.585 0c-.5 0-.917.111-1.222.32-.305.208-.458.528-.458.945 0 .417.153.75.485 1 .32.251.75.377 1.306.377l.266-.011c.634-.049 1.153-.266 1.566-.643.472-.444.708-1.043.708-1.807v-.18h-2.651Zm9.539-8.161v1.613h-1.903V7.033h1.903Z"/></g><defs><clipPath id="logo-site__a"><path fill="#fff" d="M0 0h91v24H0z"/></clipPath></defs></svg>